<?xml version="1.0" encoding="utf-8"?>
<!-- Generator: Adobe Illustrator 23.0.4, SVG Export Plug-In . SVG Version: 6.00 Build 0)  -->
<svg version="1.1" id="Livello_1" xmlns="http://www.w3.org/2000/svg" xmlns:xlink="http://www.w3.org/1999/xlink" x="0px" y="0px"
	 viewBox="0 0 120 120" style="enable-background:new 0 0 120 120;" xml:space="preserve">
<style type="text/css">
	.st0{fill:#FFFFFF;}
	.st1{fill:#0066B3;}
</style>
<path class="st1" d="M118.6,37.8c-1.7-2.8-4.5-4.6-7.7-4.9c-0.3-0.1-0.7-0.2-1.1-0.2L44.1,37l-2.2-16.6c-0.3-1.6-0.9-3.1-1.7-4.5
	c-4.1-6.9-13-9.3-20-5.2c-6.9,4.1-9.3,13-5.2,20c0.7,1.3,1.7,2.4,2.7,3.4c1,0.9,2.5,0.8,3.5-0.2c0.9-1,0.8-2.5-0.1-3.5
	c-0.7-0.7-1.3-1.4-1.8-2.3c-2.7-4.6-1.1-10.6,3.5-13.3c4.6-2.7,10.6-1.1,13.3,3.5c0.6,0.9,0.9,2,1.1,2.9L39.5,40
	c0.2,1.2,1.2,2.1,2.4,2.1c0.1,0,0.1,0,0.2,0l66.9-4.4c0.3,0.1,0.5,0.1,0.8,0.1c1.9-0.1,3.7,0.8,4.6,2.5c0.7,1.1,0.9,2.5,0.5,3.8
	c-0.3,1.3-1.2,2.4-2.3,3L12.4,105.7c-2.4,1.4-5.4,0.6-6.8-1.8c-0.9-1.6-0.9-3.6,0.1-5.2c0,0,0,0,0,0l28-43c0.7-1.1,0.4-2.6-0.7-3.4
	c-1.1-0.7-2.6-0.4-3.4,0.7L1.7,96c0,0-0.1,0.1-0.1,0.1c-2,3.1-2.1,7.1-0.2,10.3c1.8,3.1,5.1,4.9,8.5,4.9c1.7,0,3.4-0.4,5-1.4
	l100.2-58.7c2.3-1.3,3.9-3.5,4.6-6C120.3,42.7,120,40.1,118.6,37.8"/>
</svg>
