<?xml version="1.0" encoding="utf-8"?>
<!-- Generator: Adobe Illustrator 23.0.4, SVG Export Plug-In . SVG Version: 6.00 Build 0)  -->
<svg version="1.1" id="Livello_1" xmlns="http://www.w3.org/2000/svg" xmlns:xlink="http://www.w3.org/1999/xlink" x="0px" y="0px"
	 viewBox="0 0 120 120" style="enable-background:new 0 0 120 120;" xml:space="preserve">
<style type="text/css">
	.st0{fill:#FFFFFF;}
	.st1{fill:#0066B3;}
</style>
<g>
	<path class="st1" d="M59.8,55.8c-21.9,0-39.7,17.8-39.7,39.7c0,9.3,7.6,17,17,17c5,0,9.7-2.2,12.9-6c0.1-0.1,0.1-0.2,0.2-0.2
		c0.1-0.1,0.2-0.3,0.3-0.4c0.1-0.1,0.1-0.1,0.2-0.2c2.3-2.7,5.7-4.2,9.2-4.2c3.5,0,6.9,1.5,9.2,4.2c0.1,0.1,0.1,0.2,0.2,0.2
		c0.1,0.1,0.2,0.2,0.3,0.4c0.1,0.1,0.1,0.2,0.2,0.2c3.2,3.8,7.9,6,12.9,6c9.3,0,17-7.6,17-17C99.6,73.6,81.7,55.8,59.8,55.8
		 M82.6,107.7c-3.5,0-6.9-1.5-9.2-4.2c0,0,0,0,0,0c-0.2-0.3-0.4-0.5-0.6-0.7c0,0,0-0.1-0.1-0.1c-3.2-3.8-7.9-6-12.9-6
		c-5,0-9.7,2.2-12.9,6c0,0,0,0.1-0.1,0.1c-0.2,0.2-0.4,0.5-0.6,0.7c0,0,0,0,0,0c-2.3,2.7-5.7,4.2-9.2,4.2c-6.7,0-12.2-5.5-12.2-12.2
		c0-19.3,15.7-35,35-35c19.3,0,35,15.7,35,35C94.8,102.2,89.3,107.7,82.6,107.7"/>
	<path class="st1" d="M29.8,42.9c3.1,3.7,7.1,5.7,11.4,5.7c0.2,0,0.4,0,0.6,0c4.5-0.2,8.5-2.6,11.4-6.8c2.8-4,4.1-9.1,3.9-14.5
		c-0.3-5.4-2.1-10.3-5.2-14c-3.3-3.9-7.5-5.9-12-5.7c-9,0.4-15.8,10-15.3,21.3C24.8,34.2,26.6,39.2,29.8,42.9 M40,12.3
		c0.1,0,0.3,0,0.4,0c2.8,0,5.5,1.4,7.7,4c2.5,2.9,3.9,6.9,4.1,11.2c0.2,4.3-0.9,8.4-3,11.6c-2,2.9-4.8,4.6-7.7,4.8h0
		c-2.9,0.1-5.8-1.3-8.1-4c-2.5-2.9-3.9-6.9-4.1-11.2C28.8,20,33.7,12.6,40,12.3"/>
	<path class="st1" d="M27.2,69c2.5-3.7,3.7-8.5,3.3-13.5c-0.7-10.6-8-18.5-16.5-17.9c-4.2,0.3-8,2.6-10.6,6.5
		c-2.5,3.7-3.7,8.5-3.3,13.5c0.3,5,2.1,9.6,5.1,12.9c2.9,3.2,6.6,5,10.5,5c0.3,0,0.6,0,0.9,0C20.8,75.2,24.5,72.9,27.2,69
		 M16.2,70.7c-2.7,0.2-5.4-1-7.5-3.4c-2.3-2.5-3.6-6.1-3.9-10.1c-0.3-4,0.6-7.7,2.5-10.5c1.8-2.6,4.3-4.2,7-4.4c0.2,0,0.4,0,0.6,0
		c5.6,0,10.4,5.8,10.9,13.5c0.3,4-0.6,7.7-2.5,10.5C21.4,69,19,70.5,16.2,70.7"/>
	<path class="st1" d="M78.2,49.2c0.2,0,0.4,0,0.6,0c8.7,0,16.1-8.7,16.6-19.8C96,18.1,89.2,8.6,80.2,8.1c-0.2,0-0.4,0-0.6,0
		c-8.7,0-16.1,8.7-16.6,19.7C62.4,39.2,69.3,48.7,78.2,49.2 M67.7,28.1c0.4-8.5,5.7-15.2,11.9-15.2c0.1,0,0.3,0,0.4,0
		c6.3,0.3,11.2,7.6,10.8,16.3c-0.4,8.7-5.9,15.5-12.3,15.2C72.1,44.1,67.3,36.8,67.7,28.1"/>
	<path class="st1" d="M116.6,44.6c-2.6-3.9-6.4-6.2-10.6-6.5c-4.2-0.3-8.3,1.5-11.4,5c-3,3.3-4.8,7.9-5.1,12.9
		c-0.3,5,0.8,9.8,3.3,13.5c2.6,3.9,6.4,6.2,10.6,6.5c0.3,0,0.6,0,0.9,0c8.1,0,14.9-7.7,15.6-17.9C120.3,53.1,119.1,48.3,116.6,44.6
		 M115.2,57.8c-0.5,8-5.6,13.9-11.4,13.5c-2.7-0.2-5.2-1.7-7-4.4c-1.9-2.8-2.8-6.6-2.5-10.5c0.3-4,1.7-7.6,3.9-10.1
		c2.1-2.4,4.8-3.6,7.5-3.4c2.7,0.2,5.2,1.7,7,4.4C114.6,50.1,115.5,53.8,115.2,57.8"/>
</g>
</svg>
