<?xml version="1.0" encoding="utf-8"?>
<!-- Generator: Adobe Illustrator 23.0.4, SVG Export Plug-In . SVG Version: 6.00 Build 0)  -->
<svg version="1.1" id="Livello_1" xmlns="http://www.w3.org/2000/svg" xmlns:xlink="http://www.w3.org/1999/xlink" x="0px" y="0px"
	 viewBox="0 0 120 120" style="enable-background:new 0 0 120 120;" xml:space="preserve">
<style type="text/css">
	.st0{fill:#FFFFFF;}
	.st1{fill:#0066B3;}
</style>
<path class="st1" d="M115.6,22.5c2.8-2.4,4.4-5.9,4.4-9.7c0-7-5.7-12.8-12.8-12.8c-3.8,0-7.3,1.6-9.7,4.4c-10.5-3.7-22-1.1-30.1,6.7
	c-2.9-2.9-4.8-4.7-5-4.9c-1-1-2.5-1-3.5,0L45.5,19.8c-0.5,0.5-0.7,1.1-0.7,1.7c0,0.7,0.3,1.3,0.7,1.7l3.3,3.3L5.4,70
	C-1.6,77.1-1.8,88.4,5,95.2L24.8,115c3.2,3.2,7.5,5,12.1,5c0.1,0,0.3,0,0.4,0c4.7-0.1,9.2-2,12.6-5.4l43.4-43.4l3.3,3.3
	c0.5,0.5,1.1,0.7,1.7,0.7s1.3-0.2,1.7-0.7l14-14c0.5-0.5,0.7-1.1,0.7-1.7c0-0.7-0.3-1.3-0.7-1.7l-5-4.9
	C116.8,44.2,119.2,32.8,115.6,22.5z M89.9,67.7l-43.4,43.4c-2.5,2.5-5.8,3.9-9.3,4c-3.4,0.1-6.6-1.2-8.9-3.5L8.4,91.7
	c-4.9-4.9-4.7-13,0.5-18.2l9.3-9.3L34,80.1c0.5,0.5,1.1,0.7,1.7,0.7c0.6,0,1.3-0.2,1.7-0.7c1-1,1-2.5,0-3.5L21.7,60.8l4.5-4.5
	L42,72.1c0.5,0.5,1.1,0.7,1.7,0.7c0.6,0,1.3-0.2,1.7-0.7c1-1,1-2.5,0-3.5L29.7,52.8l4.5-4.5L50,64.1c0.5,0.5,1.1,0.7,1.7,0.7
	c0.6,0,1.3-0.2,1.7-0.7c1-1,1-2.5,0-3.5L37.6,44.8l14.7-14.7l26.4,26.4L89.9,67.7z M98.5,69.3L82.1,53L54.1,24.9c0,0,0,0,0,0
	l-3.3-3.3l10.1-10.1c1.2,1.2,2.9,2.9,5,4.9c0,0,0,0,0,0L104,53.9c0,0,0,0,0,0l5,4.9L98.5,69.3z M111.3,19.5c-1,0.6-1.5,1.9-1,3.1
	c3.8,8.9,2,19.1-4.6,26.2L71,14.6C78,7.7,88.4,5.8,97.5,9.7c1.1,0.5,2.4,0.1,3.1-1c1.4-2.4,3.9-3.8,6.7-3.8c4.3,0,7.9,3.5,7.9,7.9
	C115.1,15.6,113.7,18.1,111.3,19.5z"/>
</svg>
