<?xml version="1.0" encoding="utf-8"?>
<!-- Generator: Adobe Illustrator 23.0.4, SVG Export Plug-In . SVG Version: 6.00 Build 0)  -->
<svg version="1.1" id="Livello_1" xmlns="http://www.w3.org/2000/svg" xmlns:xlink="http://www.w3.org/1999/xlink" x="0px" y="0px"
	 viewBox="0 0 120 120" style="enable-background:new 0 0 120 120;" xml:space="preserve">
<style type="text/css">
	.st0{fill:#FFFFFF;}
	.st1{fill:#0066B3;}
</style>
<path class="st1" d="M115.6,45.4c-5.8-5.8-15.1-5.8-21-0.2v-7.5c0-9.2-8-16.7-17.7-16.7H43.2c-9.8,0-17.7,7.5-17.7,16.7l0,7.6
	c-5.9-5.7-15.3-5.6-21.1,0.2C1.6,48.3,0,52.1,0,56.1s1.6,7.8,4.4,10.6c2.3,2.3,5.2,3.8,8.4,4.2v25.8c0,1.2,1,2.2,2.2,2.2h12.8
	c1.2,0,2.2-1,2.2-2.2c0-0.1,0-0.2,0-0.3c0-0.2,0-1.1-0.1-4h60.1c0,2.5,0,3.6,0,3.9c0,0.1,0,0.2,0,0.3c0,1.2,1,2.2,2.2,2.2H105
	c1.2,0,2.2-1,2.2-2.2V70.9c3.2-0.5,6.1-1.9,8.4-4.2c2.8-2.8,4.4-6.6,4.4-10.6S118.4,48.2,115.6,45.4z M30.2,77.9v-3.8
	c0-6.7,5.4-12.1,12.1-12.1h35.8c6.5,0,11.7,5.3,11.7,11.7v4.2H30.2z M43.2,25.5h33.7c7.3,0,13.3,5.5,13.3,12.2v16.1
	c0,0.1,0,0.2,0,0.3c0,0.1,0,0.2,0,0.3l0,8.5c-3-3.3-7.2-5.3-12-5.3H42.3c-4.9,0-9.3,2.1-12.3,5.5l-0.1-25.4
	C29.9,31,35.9,25.5,43.2,25.5z M112.5,63.5C112.4,63.5,112.4,63.5,112.5,63.5c-2,2-4.6,3.1-7.5,3.1c-1.2,0-2.2,1-2.2,2.2v25.6h-8.3
	c0-1.1,0-2.6,0-4.3c0-1.2-1-2.2-2.2-2.2H27.7c-0.6,0-1.2,0.2-1.6,0.7c-0.4,0.4-0.6,1-0.6,1.6c0,1.7,0,3.2,0,4.3h-8.3V68.9
	c0-1.2-1-2.2-2.2-2.2c-2.8,0-5.5-1.1-7.5-3.1c-2-2-3.1-4.7-3.1-7.5c0-2.8,1.1-5.5,3.1-7.5c4.1-4.1,10.8-4.1,15,0
	c1.6,1.6,2.6,3.7,3,5.9l0,25.7c0,1.2,1,2.2,2.2,2.2h64.6c1.2,0,2.2-1,2.2-2.2l0-6c0-0.2,0.1-0.3,0.1-0.5V54.2
	c0.4-2.2,1.4-4.1,2.9-5.6c4.1-4.1,10.8-4.1,15,0c2,2,3.1,4.7,3.1,7.5S114.5,61.5,112.5,63.5z"/>
</svg>
