<?xml version="1.0" encoding="utf-8"?>
<!-- Generator: Adobe Illustrator 23.0.4, SVG Export Plug-In . SVG Version: 6.00 Build 0)  -->
<svg version="1.1" id="Livello_1" xmlns="http://www.w3.org/2000/svg" xmlns:xlink="http://www.w3.org/1999/xlink" x="0px" y="0px"
	 viewBox="0 0 120 120" style="enable-background:new 0 0 120 120;" xml:space="preserve">
<style type="text/css">
	.st0{fill:#FFFFFF;}
	.st1{fill:#0066B3;}
</style>
<g>
	<path class="st1" d="M59.3,49.8c-3,0-5.9,1.2-8,3.3c-2.2,2.2-3.3,5-3.3,8.1c0,3,1.2,5.9,3.3,8c2.1,2.1,5,3.3,8,3.3
		c3,0,5.9-1.2,8.1-3.3c4.4-4.4,4.4-11.7,0-16.1C65.2,50.9,62.3,49.8,59.3,49.8 M64.2,66.1c-1.3,1.3-3.1,2.1-5,2.1
		c-1.9,0-3.6-0.7-5-2.1c-1.3-1.3-2.1-3.1-2.1-5c0-1.9,0.7-3.6,2.1-5c1.3-1.3,3.1-2.1,5-2.1c1.9,0,3.6,0.7,5,2.1
		C66.9,58.9,66.9,63.4,64.2,66.1"/>
	<path class="st1" d="M113.4,67.8V53.6c3.8-1,6.6-4.4,6.6-8.5c0-1.2-1-2.2-2.2-2.2c-1.2,0-2.2,1-2.2,2.2c0,2.4-1.9,4.3-4.3,4.4
		c0,0-0.1,0-0.1,0c-0.1,0-0.1,0-0.2,0c-2.4-0.1-4.3-2-4.3-4.4c0-1.2-1-2.2-2.2-2.2c-1.2,0-2.2,1-2.2,2.2c0,4.1,2.9,7.6,6.7,8.6v14.2
		c-1.1,0.3-2.2,0.9-3.1,1.8c-0.9,0.9-1.5,1.9-1.8,3.1H92.4V58.2C92.4,41,79,27,62.2,25.8V15.3c0-1.2-1-2.2-2.2-2.2
		c-1.2,0-2.2,1-2.2,2.2v10.5C41,27,27.6,41,27.6,58.1v14.6H15.8c-0.4-1.1-0.9-2.2-1.8-3.1c-2.9-2.9-7.6-2.9-10.5,0
		c-1.4,1.4-2.2,3.3-2.2,5.2c0,2,0.8,3.8,2.2,5.2c0.9,0.9,1.9,1.5,3.1,1.8v14.2c-3.8,1-6.6,4.4-6.6,8.5c0,1.2,1,2.2,2.2,2.2
		c1.2,0,2.2-1,2.2-2.2c0-2.4,1.9-4.3,4.3-4.4c0,0,0.1,0,0.1,0c0.1,0,0.1,0,0.2,0c2.4,0.1,4.3,2,4.3,4.4c0,1.2,1,2.2,2.2,2.2
		s2.2-1,2.2-2.2c0-4.1-2.9-7.6-6.7-8.6V81.9c1.1-0.3,2.2-0.9,3.1-1.8v0c0.9-0.9,1.5-1.9,1.8-3.1h11.8v27.1c0,1.2,1,2.2,2.2,2.2h60.4
		c1.2,0,2.2-1,2.2-2.2V77.1h11.8c0.4,1.1,0.9,2.2,1.8,3.1c2.9,2.9,7.6,2.9,10.5,0c1.4-1.4,2.2-3.3,2.2-5.2c0-2-0.8-3.8-2.2-5.2
		C115.6,68.8,114.5,68.2,113.4,67.8 M10.9,77c-1.2,1.2-3.1,1.2-4.3,0c-0.6-0.6-0.9-1.3-0.9-2.1c0-0.8,0.3-1.6,0.9-2.1
		c0.6-0.6,1.4-0.9,2.1-0.9c0.8,0,1.6,0.3,2.1,0.9c0.6,0.6,0.9,1.3,0.9,2.1C11.8,75.7,11.5,76.5,10.9,77 M88,102H32v-5.5h56V102z
		 M88,92.2H32v-34c0-15.4,12.6-28,28-28c15.5,0,28,12.6,28,28V92.2z M113.4,77c-0.6,0.6-1.4,0.9-2.1,0.9c-0.8,0-1.6-0.3-2.1-0.9
		c-0.6-0.6-0.9-1.3-0.9-2.1c0-0.8,0.3-1.6,0.9-2.1c1.2-1.2,3.1-1.2,4.3,0c0.6,0.6,0.9,1.3,0.9,2.1C114.3,75.7,113.9,76.5,113.4,77"
		/>
</g>
</svg>
