<?xml version="1.0" encoding="utf-8"?>
<!-- Generator: Adobe Illustrator 23.0.4, SVG Export Plug-In . SVG Version: 6.00 Build 0)  -->
<svg version="1.1" id="Livello_1" xmlns="http://www.w3.org/2000/svg" xmlns:xlink="http://www.w3.org/1999/xlink" x="0px" y="0px"
	 viewBox="0 0 120 120" style="enable-background:new 0 0 120 120;" xml:space="preserve">
<style type="text/css">
	.st0{fill:#FFFFFF;}
	.st1{fill:#0066B3;}
</style>
<path class="st1" d="M119.4,10.3l-6.4-6.4c-0.6-0.6-1.6-0.8-2.4-0.4L87,14.1c-0.6,0.3-1.1,0.9-1.2,1.6c-0.1,0.7,0.1,1.4,0.6,1.9
	l2.8,2.8L62,47.5c0-1.1,0-2.3,0.1-3.5c0.3-3.2-0.9-6.3-3.1-8.6l-0.2-0.2c-2.8-2.8-6.8-4-10.7-3.1c-3.9,0.9-7,3.6-8.3,7.4l-3.2,9.1
	c-1.2,3.4-4.1,5.9-7.7,6.5L18.1,57C9.9,58.4,3.6,64,1.1,71.9c-2.5,7.9-0.5,16.2,5.4,22l16.4,16.4c4.2,4.2,9.6,6.4,15.3,6.4
	c2.2,0,4.5-0.3,6.7-1.1c7.9-2.5,13.5-8.9,14.9-17.1l1.9-11.1c0.6-3.4,3-6.3,6.2-7.5L81,74.9c1.6-0.6,2.5-2.2,2.3-3.9
	c-0.2-1.7-1.6-3-3.3-3.2c-4-0.4-11.4-2.7-15.2-8.4l31.6-31.6l2.8,2.8c0.4,0.4,1,0.6,1.5,0.6c0.6,0,1.1-0.2,1.5-0.6l17.1-17.1
	c0.4-0.4,0.6-1,0.6-1.5C120,11.2,119.8,10.7,119.4,10.3 M60.5,57.5C60.5,57.5,60.5,57.5,60.5,57.5c-0.2,0.2-0.3,0.4-0.4,0.7
	c0,0,0,0.1,0,0.1c-0.1,0.2-0.1,0.5-0.1,0.7c0,0,0,0.1,0,0.1c0,0.2,0.1,0.5,0.1,0.7c0,0,0,0.1,0,0.1c0,0,0,0.1,0,0.1
	c3.5,6.9,10.9,10.5,17,11.8L66.3,76c-4.6,1.8-8,6-8.8,10.8l-1.9,11.1c-1.1,6.6-5.6,11.7-12,13.7c-6.4,2-13,0.4-17.7-4.3L9.5,90.9
	c-4.7-4.7-6.3-11.3-4.3-17.7c2-6.4,7.1-10.8,13.7-12l10.8-1.9c5.1-0.9,9.3-4.5,11-9.3l3.2-9.1c0.8-2.3,2.7-4,5.2-4.6
	c2.4-0.5,4.9,0.2,6.6,1.9l0.2,0.2c1.4,1.4,2.1,3.3,1.9,5.2c-0.2,2.7-0.2,5.3,0.2,7.8l-5.7,5.7c-0.1,0.1-0.1,0.1-0.1,0.2
	c-1.1-0.3-2.2-0.5-3.4-0.5c-3,0-5.8,1.2-8,3.3c-4.4,4.4-4.4,11.5,0,15.9c2.1,2.1,4.9,3.3,8,3.3c3,0,5.8-1.2,8-3.3
	c2.1-2.1,3.3-4.9,3.3-8s-1.2-5.8-3.3-8c-0.2-0.2-0.4-0.4-0.6-0.6l5.8-5.8c0,0,0,0,0,0l30.3-30.3l1.2,1.2L60.5,57.5z M53.6,63.2
	c1.3,1.3,2,3,2,4.9c0,1.8-0.7,3.6-2,4.9s-3,2-4.9,2c-1.8,0-3.6-0.7-4.9-2c-2.7-2.7-2.7-7.1,0-9.8c1.3-1.3,3-2,4.9-2
	C50.6,61.2,52.3,61.9,53.6,63.2 M100.7,25.9l-9.1-9.1L110.9,8l3.8,3.8L100.7,25.9z"/>
</svg>
