<?xml version="1.0" encoding="utf-8"?>
<!-- Generator: Adobe Illustrator 23.0.4, SVG Export Plug-In . SVG Version: 6.00 Build 0)  -->
<svg version="1.1" id="Livello_1" xmlns="http://www.w3.org/2000/svg" xmlns:xlink="http://www.w3.org/1999/xlink" x="0px" y="0px"
	 viewBox="0 0 120 120" style="enable-background:new 0 0 120 120;" xml:space="preserve">
<style type="text/css">
	.st0{fill:#FFFFFF;}
	.st1{fill:#0066B3;}
</style>
<g>
	<g>
		<path class="st1" d="M119.3,41.3L94.5,17.7c0,0,0,0,0,0c-0.2-0.2-0.4-0.3-0.7-0.4c0,0-0.1,0-0.1,0c-0.2-0.1-0.5-0.1-0.7-0.1H27
			c-0.3,0-0.6,0.1-0.8,0.2c0,0,0,0,0,0c-0.3,0.1-0.5,0.3-0.7,0.5c0,0,0,0,0,0l0,0h0L0.7,42.1c-0.4,0.4-0.7,1-0.7,1.6v56.9
			c0,1.2,1,2.2,2.2,2.2h115.5c1.2,0,2.2-1,2.2-2.2V42.9C120,42.3,119.7,41.7,119.3,41.3z M49.6,98.4H4.5V44.7L27,22.5l22.6,22.6
			V98.4z M32.5,21.6h59.6l21.4,20.3H52.8L32.5,21.6z M115.5,98.4H54.1v-52h61.4V98.4z"/>
	</g>
	<path class="st1" d="M75.2,58.2H63c-2.1,0-3.8,1.7-3.8,3.8v22.8c0,2.1,1.7,3.8,3.8,3.8h12.1c2.1,0,3.8-1.7,3.8-3.8V61.9
		C78.9,59.8,77.3,58.2,75.2,58.2z M74.5,84H63.8V62.6h10.7V84z"/>
	<path class="st1" d="M105.6,58.2H93.4c-2.1,0-3.8,1.7-3.8,3.8v22.8c0,2.1,1.7,3.8,3.8,3.8h12.1c2.1,0,3.8-1.7,3.8-3.8V61.9
		C109.3,59.8,107.6,58.2,105.6,58.2z M104.8,84H94.1V62.6h10.7V84z"/>
</g>
</svg>
