<?xml version="1.0" encoding="utf-8"?>
<!-- Generator: Adobe Illustrator 23.0.4, SVG Export Plug-In . SVG Version: 6.00 Build 0)  -->
<svg version="1.1" id="Livello_1" xmlns="http://www.w3.org/2000/svg" xmlns:xlink="http://www.w3.org/1999/xlink" x="0px" y="0px"
	 viewBox="0 0 120 120" style="enable-background:new 0 0 120 120;" xml:space="preserve">
<style type="text/css">
	.st0{fill:#FFFFFF;}
	.st1{fill:#0066B3;}
</style>
<path class="st1" d="M97.3,0H79.6h0H22.7c-1.3,0-2.4,1.1-2.4,2.4c0,1.3,1.1,2.4,2.4,2.4h16l6.3,22c0.3,1,1.3,1.8,2.3,1.8h0
	L28.6,93.8c-0.3,0.9,0.1,2,0.8,2.6l29.1,23.1c0,0,0.1,0,0.1,0.1c0.2,0.1,0.3,0.2,0.5,0.3c0.1,0,0.2,0.1,0.3,0.1
	c0.2,0,0.3,0.1,0.5,0.1c0,0,0.1,0,0.1,0c0.3,0,0.5-0.1,0.7-0.1c0,0,0.1,0,0.1,0c0.3-0.1,0.5-0.2,0.7-0.4l29.1-23
	c0.8-0.6,1.1-1.6,0.8-2.6L72.7,28.7h0c1.1,0,2-0.7,2.3-1.8l6.3-22h15.9c1.3,0,2.4-1.1,2.4-2.4C99.7,1.1,98.6,0,97.3,0 M86.4,93.6
	l-26.3,20.8L33.8,93.6l18.7-64.9h15.2L86.4,93.6z M70.9,23.8h-1.6c0,0,0,0-0.1,0H49.2L43.8,4.9h32.5L70.9,23.8z"/>
</svg>
