<?xml version="1.0" encoding="utf-8"?>
<!-- Generator: Adobe Illustrator 23.0.4, SVG Export Plug-In . SVG Version: 6.00 Build 0)  -->
<svg version="1.1" id="Livello_1" xmlns="http://www.w3.org/2000/svg" xmlns:xlink="http://www.w3.org/1999/xlink" x="0px" y="0px"
	 viewBox="0 0 120 120" style="enable-background:new 0 0 120 120;" xml:space="preserve">
<style type="text/css">
	.st0{fill:#FFFFFF;}
	.st1{fill:#0066B3;}
</style>
<g>
	<g>
		<path class="st1" d="M43.3,69.9c-2.8,0-5.4-0.6-7.2-2.3c-2-2-2.9-4.6-2.3-7.2c0.2-1.2,0.8-2.3,1.5-3.3c0.8-1,1.7-1.7,2.8-2.2
			c1-0.4,2-0.7,3-0.7c0-1,0.2-2.1,0.7-3c0.5-1.1,1.3-2.1,2.2-2.8c1-0.8,2.1-1.3,3.3-1.5c2.6-0.5,5.2,0.3,7.2,2.3
			c3.5,3.5,2.3,10.1,1.4,14.9c0,0,0,0,0,0c-0.2,0.9-0.3,1.8-0.4,2.5c-0.1,1-0.9,1.8-1.9,1.9c-0.7,0.1-1.5,0.2-2.4,0.4
			C48.8,69.4,46,69.9,43.3,69.9z M41.2,58.1c-0.6,0-1.1,0.1-1.4,0.3c-0.5,0.2-1,0.6-1.4,1.1c-0.4,0.5-0.6,1-0.8,1.6
			c-0.2,0.9-0.1,2.3,1.3,3.7c2,2,7.7,1,11.5,0.3c0.5-0.1,1-0.2,1.4-0.3c0.1-0.5,0.2-0.9,0.3-1.4l0,0c0.7-3.8,1.7-9.5-0.3-11.5
			c-1.4-1.4-2.8-1.5-3.7-1.3c-0.6,0.1-1.1,0.4-1.6,0.8c-0.5,0.4-0.9,0.9-1.1,1.4c-0.3,0.7-0.5,1.8,0.1,3.1c0.3,0.7,0.2,1.6-0.4,2.2
			c-0.6,0.6-1.4,0.7-2.2,0.4C42.3,58.2,41.7,58.1,41.2,58.1z M53.1,64.7C53.1,64.7,53.1,64.7,53.1,64.7
			C53.1,64.7,53.1,64.7,53.1,64.7z M54,63.8L54,63.8L54,63.8z"/>
	</g>
	<g>
		<path class="st1" d="M107.2,66.5c0.1-0.2,0.1-0.4,0.1-0.6c0,0,0,0,0-0.1c0,0,0-0.1,0-0.1c0-0.2,0-0.5-0.1-0.7c0,0,0,0,0-0.1
			c-0.1-0.2-0.2-0.4-0.4-0.6c0,0,0,0,0,0L75.2,32.7c0,0,0,0,0,0l-6.4-6.4c0,0,0,0,0,0c-0.2-0.2-0.4-0.3-0.7-0.4c0,0,0,0,0,0
			c-0.2-0.1-0.5-0.1-0.8-0.1c0,0,0,0,0,0c-0.1,0-0.3,0-0.4,0l-15,3.2c-0.4-1.5-1.3-2.8-2.6-3.6c-0.8-0.6-1.8-0.9-2.8-1
			c-1-0.1-2,0-3,0.4c-0.7,0.2-1.3,0.6-1.8,1c-0.5-0.4-1.1-0.8-1.8-1c-0.9-0.4-2-0.5-3-0.4c-1,0.1-2,0.5-2.8,1
			c-1.8,1.2-2.9,3.3-2.9,5.6c0,0.8,0.2,1.6,0.5,2.4l-8.3,1.8c-0.8,0.2-1.4,0.8-1.6,1.6l-9.1,43.2c0,0.1,0,0.3,0,0.4c0,0,0,0,0,0
			c0,0.3,0.1,0.5,0.2,0.7c0,0,0,0,0,0c0.1,0.2,0.2,0.5,0.4,0.6c0,0,0,0,0,0l6.1,5.9c0.2,0.3,0.5,0.6,0.8,0.8l31.6,30.9c0,0,0,0,0,0
			c0.2,0.2,0.4,0.3,0.7,0.4c0,0,0,0,0,0c0.2,0.1,0.5,0.1,0.7,0.1c0,0,0,0,0,0c0,0,0,0,0,0c0,0,0,0,0,0c0,0,0.1,0,0.1,0
			c0.2,0,0.4-0.1,0.6-0.1c0,0,0.1,0,0.1,0c0.2-0.1,0.4-0.2,0.6-0.4c0,0,0,0,0,0l52.2-52.2c0,0,0,0,0,0C107,67,107.1,66.8,107.2,66.5
			C107.2,66.5,107.2,66.5,107.2,66.5z M49.5,82.8l1.4,30.1l-25.5-25L49.5,82.8z M53.5,82L65,79.6c0.8-0.2,1.4-0.8,1.6-1.6l2.5-11.9
			l31.6,1.5L55,113.3L53.5,82z M69.9,62.1l5-23.9l25.3,25.3L69.9,62.1z M36.3,28.7c0.3-0.2,0.7-0.3,1.1-0.4c0.1,0,0.2,0,0.3,0
			c0.3,0,0.6,0,0.8,0.1c0.6,0.2,1.1,0.7,1.3,1.4c0.3,0.8,1.1,1.3,1.9,1.3c0.9,0,1.6-0.5,1.9-1.3c0.3-0.7,0.7-1.2,1.3-1.4
			c0.3-0.1,0.7-0.2,1.1-0.1c0.4,0,0.7,0.2,1.1,0.4c0.5,0.3,1.1,1,1.1,2.2c0,1.9-3.6,4.5-5.8,6c0,0-0.1,0.1-0.1,0.1
			c-0.2,0.1-0.3,0.2-0.5,0.4c-0.2-0.1-0.4-0.3-0.6-0.4c-1.3-0.9-3.2-2.2-4.5-3.5c-0.1-0.1-0.1-0.1-0.2-0.2c-0.7-0.8-1.2-1.5-1.2-2.2
			C35.2,29.7,35.8,29,36.3,28.7z M25.5,38.8l8.9-1.9c1.4,1.3,3,2.4,4.3,3.3c0.6,0.4,1.1,0.8,1.6,1.1c0.4,0.3,0.9,0.5,1.4,0.5
			c0.5,0,1-0.2,1.4-0.5c0.4-0.3,0.9-0.7,1.5-1.1l0.1-0.1c2.6-1.8,5.9-4.1,7.1-7.1l14.9-3.2l4.9,4.9l-8.6,41.1l-41,8.6l-5-4.9
			L25.5,38.8z"/>
		<g>
			<path class="st1" d="M54.5,18.8c-2.1,0-4.2-0.4-6-0.7h0l-0.1,0c-0.7-0.1-1.3-0.2-1.8-0.3c-1-0.1-1.8-0.9-1.9-1.9
				c-0.1-0.5-0.2-1.2-0.3-1.8c-0.7-3.9-1.6-9.1,1.2-12c1.7-1.7,3.9-2.4,6-1.9c1,0.2,1.9,0.6,2.7,1.3c0.8,0.6,1.4,1.4,1.9,2.4
				c0.3,0.6,0.5,1.3,0.5,2c0.7,0.1,1.4,0.2,2,0.5c0.9,0.4,1.7,1.1,2.4,1.9c0.6,0.8,1.1,1.7,1.3,2.7c0.4,2.2-0.3,4.3-1.9,6
				C58.9,18.4,56.8,18.8,54.5,18.8z M48.7,15.3 M48.5,14c0.2,0,0.4,0.1,0.6,0.1l0.1,0c0,0,0,0,0,0h0c2.6,0.5,7,1.2,8.3-0.1
				c0.9-0.9,0.9-1.8,0.8-2.3c-0.1-0.4-0.2-0.7-0.5-1c-0.2-0.3-0.5-0.5-0.9-0.7c-0.6-0.3-1.2-0.3-1.9,0.1c-0.8,0.4-1.7,0.2-2.3-0.4
				c-0.6-0.6-0.8-1.5-0.4-2.3c0.3-0.7,0.3-1.3,0.1-1.9c-0.2-0.3-0.4-0.6-0.7-0.9c-0.3-0.2-0.7-0.4-1-0.5c-0.6-0.1-1.4-0.1-2.3,0.8
				c-1.3,1.3-0.6,5.7-0.1,8.3C48.4,13.5,48.4,13.8,48.5,14z M47.1,13.8C47.1,13.8,47.1,13.8,47.1,13.8
				C47.1,13.8,47.1,13.8,47.1,13.8z"/>
		</g>
	</g>
</g>
</svg>
