<?xml version="1.0" encoding="utf-8"?>
<!-- Generator: Adobe Illustrator 23.0.4, SVG Export Plug-In . SVG Version: 6.00 Build 0)  -->
<svg version="1.1" id="Livello_1" xmlns="http://www.w3.org/2000/svg" xmlns:xlink="http://www.w3.org/1999/xlink" x="0px" y="0px"
	 viewBox="0 0 120 120" style="enable-background:new 0 0 120 120;" xml:space="preserve">
<style type="text/css">
	.st0{fill:#FFFFFF;}
	.st1{fill:#0066B3;}
</style>
<path class="st1" d="M115.2,56.5c-1.1-1.1-2.4-2-3.7-2.8c-0.8-2.1-2-4-3.6-5.5c-0.3-0.3-0.6-0.6-1-0.9c-2.9-2.5-6.7-3.9-10.6-3.9
	H64.9l-2.2-6.2c-0.4-1.2-1.7-1.8-2.9-1.3c-1.2,0.4-1.8,1.7-1.3,2.9l1.9,5.3c-0.1,0.1-0.2,0.3-0.3,0.4c-0.4,0.7-0.9,1.3-1.4,1.8
	c-0.1,0.1-0.1,0.1-0.1,0.2c-2.2,2.2-5.2,3.4-8.3,3.4c-6.3,0-11.5-4.9-11.8-11.2c0-0.2,0-0.5,0-0.7c0-1.2-1-2.2-2.2-2.2
	c-2.6,0-5.3,0.3-7.8,0.9C14.9,39.5,4.1,49.9,0.8,63.1c0,0,0,0,0,0c0,0.1,0,0.1-0.1,0.2l0,0C0.5,64.2,0.3,65,0.1,66
	C0,66.6,0,67.3,0,68c0,0.3,0,0.5,0,0.7c0.4,8.7,7.5,15.6,16.3,15.6c4.3,0,8.4-1.7,11.5-4.8c2.4-2.4,3.9-5.4,4.5-8.7h55.4
	c0.1,0.8,0.3,1.5,0.6,2.2c2.2,6.7,8.4,11.2,15.5,11.2c4.3,0,8.4-1.7,11.5-4.8c3.1-3.1,4.8-7.2,4.8-11.5
	C120,63.6,118.3,59.6,115.2,56.5z M24.7,76.3c-2.2,2.3-5.2,3.5-8.4,3.5c-6.3,0-11.6-5.1-11.8-11.4c0-0.2,0-0.3,0-0.5
	c0-0.5,0-0.9,0.1-1.3c0.1-0.8,0.3-1.5,0.4-2.2c0,0,0,0,0,0c0,0,0,0,0,0c0.2-0.8,0.6-1.6,1-2.3c0.5-0.9,1.2-1.8,1.9-2.5
	c1.4-1.4,3.2-2.4,5-3c1.1-0.3,2.2-0.5,3.3-0.5c0.8,0,1.6,0.1,2.3,0.2c2.3,0.5,4.4,1.6,6,3.2c0.3,0.3,0.6,0.7,0.9,1.1
	c1.7,2.1,2.6,4.6,2.6,7.3c0,0.1,0,0.3,0,0.4c0,0,0,0.1,0,0.1C28,71.5,26.8,74.2,24.7,76.3z M90.9,58c-0.2,0.3-0.4,0.5-0.6,0.8
	c-0.1,0.2-0.2,0.3-0.3,0.5c-0.2,0.3-0.3,0.5-0.5,0.8c-0.1,0.2-0.2,0.4-0.3,0.5c-0.1,0.3-0.3,0.5-0.4,0.8c-0.1,0.2-0.2,0.4-0.2,0.6
	c-0.1,0.3-0.2,0.6-0.3,0.9c-0.1,0.2-0.1,0.4-0.2,0.5c-0.1,0.3-0.2,0.6-0.2,1c0,0.2-0.1,0.3-0.1,0.5c-0.1,0.5-0.2,0.9-0.2,1.4
	c0,0,0,0.1,0,0.1v0h-55c0,0,0-0.1,0-0.1c0-0.5-0.1-0.9-0.2-1.4c0-0.2-0.1-0.3-0.1-0.5c-0.1-0.3-0.1-0.6-0.2-1
	c-0.1-0.2-0.1-0.4-0.2-0.6c-0.1-0.3-0.2-0.6-0.3-0.9c-0.1-0.2-0.2-0.4-0.2-0.6c-0.1-0.3-0.3-0.6-0.4-0.8c-0.1-0.2-0.2-0.4-0.3-0.5
	c-0.2-0.3-0.3-0.5-0.5-0.8c-0.1-0.2-0.2-0.3-0.3-0.5c-0.2-0.3-0.4-0.6-0.6-0.8c-0.1-0.1-0.2-0.2-0.3-0.4c-0.3-0.4-0.7-0.8-1-1.1
	c-1.9-1.9-4.3-3.3-6.8-4.1c-1.5-0.5-3.1-0.7-4.7-0.7c0,0,0,0-0.1,0c-0.5,0-1,0-1.5,0.1c-0.2,0-0.4,0-0.5,0.1c-0.3,0-0.6,0.1-1,0.1
	c-0.2,0-0.4,0.1-0.6,0.1c-0.3,0.1-0.6,0.1-0.8,0.2c-0.2,0.1-0.4,0.1-0.6,0.2c-0.1,0-0.3,0.1-0.4,0.1c4.5-5.9,11-10.1,18.5-11.7
	c1.6-0.4,3.2-0.6,4.8-0.7c1.1,8,8,14,16.1,14c4.3,0,8.4-1.7,11.5-4.8c0.1-0.1,0.1-0.1,0.2-0.2c0.4-0.4,0.8-0.9,1.2-1.4h33.4
	c2.8,0,5.5,1,7.7,2.8c0.2,0.2,0.5,0.4,0.7,0.6c0.1,0.1,0.3,0.3,0.4,0.4c-0.5,0-1-0.1-1.5-0.1c-4.3,0-8.4,1.7-11.5,4.8
	c-0.4,0.4-0.7,0.7-1,1.1C91.1,57.7,91,57.9,90.9,58z M112.1,76.3c-2.3,2.3-5.2,3.5-8.4,3.5c-5.1,0-9.6-3.3-11.2-8.2
	c-0.3-1-0.5-2.1-0.6-3.2c0-0.2,0-0.3,0-0.5c0-3.1,1.2-6.1,3.5-8.4c2.3-2.2,5.2-3.5,8.4-3.5c0.5,0,1,0,1.5,0.1
	c1.2,0.2,2.4,0.5,3.6,1.1c1.2,0.6,2.3,1.4,3.3,2.3c2.2,2.2,3.5,5.2,3.5,8.4C115.5,71.1,114.3,74.1,112.1,76.3z"/>
</svg>
