<?xml version="1.0" encoding="utf-8"?>
<!-- Generator: Adobe Illustrator 23.0.4, SVG Export Plug-In . SVG Version: 6.00 Build 0)  -->
<svg version="1.1" id="Livello_1" xmlns="http://www.w3.org/2000/svg" xmlns:xlink="http://www.w3.org/1999/xlink" x="0px" y="0px"
	 width="335px" height="60px" viewBox="0 0 335 60" style="enable-background:new 0 0 335 60;" xml:space="preserve">
<style type="text/css">
	.st0{fill:#ffffff;}
</style>
<g>
	<path class="st0" d="M190.2,18.6c-9.7,0-16.3,8.1-16.3,20.5c0,8.9,5,14.4,13.5,14.4c9.8,0,16.2-8.2,16.2-20.4
		C203.6,24.2,198.7,18.6,190.2,18.6z M188,45c-3.5,0-5-3-5-7.1c0.1-5.7,2.2-10.8,6.6-10.8c3.3,0,4.9,2.6,4.9,6.9
		C194.5,40,192.3,45,188,45z"/>
	<path class="st0" d="M208.4,22.2l-4.8,30.9c1.5,0.3,3,0.4,4.5,0.4c1.6,0,3.1-0.1,4.7-0.4l3.7-24c1-0.6,2.5-1.1,4.2-1.1
		c1.3,0,2.2,0.2,3.2,0.6c1.9-2.3,3-5.5,3.4-8.7c-1.6-0.9-4.1-1.3-7.3-1.3C214.8,18.6,210.4,20.7,208.4,22.2z"/>
	<path class="st0" d="M241.3,11.8c-1.4-0.3-2.9-0.4-4.4-0.4c-1.5,0-3,0.1-4.7,0.4l-1.3,8.6l-1.3,8.4l-2,12.7
		c-0.2,1.1-0.2,2.1-0.2,3.1c0,6.5,3.9,8.9,9.2,8.9c4,0,7.6-1.5,9.9-3.5c0-2.7-1.4-5.6-3.2-6.9c-0.9,0.8-2.1,1.6-3.6,1.6
		c-1.8,0-2.9-0.8-2.9-3c0-0.8,0.1-1.3,0.2-2l1.7-11.1h8.9c0.7-2.2,1.3-4.3,1.3-6.9v-1.4H240L241.3,11.8z"/>
	<path class="st0" d="M159.8,6.4c-5.4,0-9.7,1.5-12.9,3.3l-6.8,43.5c1.5,0.3,3,0.4,4.6,0.4c1.5,0,3.1-0.1,4.6-0.4l1.9-12.2
		c1.5,0.4,3.1,0.6,5.1,0.6c10.7,0,17.6-8.1,17.6-20.6C173.9,11.3,168.1,6.4,159.8,6.4z M156.7,32.6c-1.6,0-2.8-0.1-4.1-0.6l2.5-16
		c1.1-0.3,2.3-0.6,3.5-0.6c4,0,6,2.7,6,7C164.5,28.4,161.4,32.6,156.7,32.6z"/>
	<path class="st0" d="M50.2,18.6c-9.7,0-16.3,8.1-16.3,20.5c0,8.9,5,14.4,13.5,14.4c9.8,0,16.2-8.2,16.2-20.4
		C63.6,24.2,58.7,18.6,50.2,18.6z M48.1,45c-3.5,0-5-3-5-7.1c0.1-5.7,2.2-10.8,6.6-10.8c3.3,0,4.9,2.6,4.9,6.9
		C54.5,40,52.3,45,48.1,45z"/>
	<path class="st0" d="M68.4,22.2l-4.8,30.9c1.5,0.3,3,0.4,4.5,0.4c1.6,0,3.1-0.1,4.7-0.4l3.7-24c1-0.6,2.5-1.1,4.2-1.1
		c1.3,0,2.2,0.2,3.2,0.6c1.9-2.3,3-5.5,3.4-8.7c-1.6-0.9-4.1-1.3-7.3-1.3C74.9,18.6,70.5,20.7,68.4,22.2z"/>
	<path class="st0" d="M98.7,28.7h8.9c0.7-2.2,1.3-4.3,1.3-6.9v-1.4H100l1.3-8.6c-1.4-0.3-2.9-0.4-4.4-0.4c-1.5,0-3,0.1-4.7,0.4
		L91,20.4l-1.3,8.4l-2,12.7c-0.2,1.1-0.2,2.1-0.2,3.1c0,6.5,3.9,8.9,9.2,8.9c4,0,7.6-1.5,9.9-3.5c0-2.7-1.4-5.6-3.2-6.9
		c-0.9,0.8-2.1,1.6-3.6,1.6c-1.8,0-2.9-0.8-2.9-3c0-0.8,0.1-1.3,0.2-2L98.7,28.7z"/>
	<path class="st0" d="M128.1,18.6c-11,0-19.2,8.6-19.2,21.7c0,8.2,4,13.2,10.5,13.2c3.7,0,6.6-1.4,9.2-4.4l0.4,3.6
		c2.1,0.4,4.2,0.4,6.3,0l4.8-30.9C137.6,20.1,133.9,18.6,128.1,18.6z M128,40.8c-1.5,3-3.5,4-5.4,4c-2.6,0-4.3-1.9-4.3-6
		c0-7,3.7-11.3,8.3-11.3c1.2,0,2.4,0.2,3.4,0.6L128,40.8z"/>
	<path class="st0" d="M277.3,28.9c0-6.1-4.3-10.3-11.9-10.3c-9.5,0-16.4,8.4-16.4,20.3c0,9.8,5.3,14.6,13.8,14.6
		c5.4,0,9.9-2.1,12.6-4.7c-0.1-2.6-1.1-5.1-3.4-6.5c-2.3,1.9-4.5,3.3-7.6,3.3c-4.2,0-6.2-1.9-6.2-6.9c2.1,0.6,4.2,0.9,6.3,0.9
		C270.7,39.6,277.3,36.9,277.3,28.9z M258.7,32.9c0.9-4,2.9-6.6,6.1-6.6c2.3,0,3.6,1.5,3.6,3.4c0,2.5-1.7,3.9-4.5,3.9
		C262.5,33.6,260.7,33.4,258.7,32.9z"/>
	<path class="st0" d="M294.3,26.4c3.1,0,6.3,1.2,8,2.5c1.8-1.5,3.3-3.9,4.2-7.1c-1.7-1.5-5.2-3.2-11.4-3.2
		c-7.4,0-13.6,4.2-13.7,11.5c0,11,13.1,8.3,13.1,12.9c0,1.6-1.1,2.8-4.1,2.8c-4.1,0-6.7-1.8-8.6-3.3c-1.9,1.2-3.6,3.7-4.5,6.9
		c1.6,1.8,5.7,4.2,11.9,4.2c9.8,0,14.6-5.1,14.6-12.2c0-10.8-13.1-8.6-13.1-12.5C290.7,27.3,291.7,26.4,294.3,26.4z"/>
	<path class="st0" d="M329.5,42.3c-2.3,1.9-4.5,3.3-7.6,3.3c-4.2,0-6.2-1.9-6.2-6.9c2.1,0.6,4.2,0.9,6.3,0.9
		c6.2,0,12.8-2.7,12.8-10.7c0-6.1-4.3-10.3-11.9-10.3c-9.5,0-16.4,8.4-16.4,20.3c0,9.8,5.3,14.6,13.8,14.6c5.4,0,9.9-2.1,12.6-4.7
		C332.8,46.3,331.7,43.8,329.5,42.3z M322.3,26.3c2.3,0,3.6,1.5,3.6,3.4c0,2.5-1.7,3.9-4.5,3.9c-1.3-0.1-3.1-0.2-5.1-0.8
		C317.2,28.8,319.1,26.3,322.3,26.3z"/>
	<path class="st0" d="M19.9,6.4c-5.4,0-9.7,1.5-12.9,3.3L0.2,53.1c1.5,0.3,3,0.4,4.6,0.4c1.5,0,3.1-0.1,4.6-0.4l1.9-12.2
		c1.5,0.4,3.1,0.6,5.1,0.6c10.7,0,17.6-8.1,17.6-20.6C34,11.3,28.2,6.4,19.9,6.4z M16.8,32.6c-1.6,0-2.8-0.1-4.1-0.6l2.5-16
		c1.1-0.3,2.3-0.6,3.5-0.6c4,0,6,2.7,6,7C24.6,28.4,21.4,32.6,16.8,32.6z"/>
</g>
</svg>
