<?xml version="1.0" encoding="utf-8"?>
<!-- Generator: Adobe Illustrator 23.0.4, SVG Export Plug-In . SVG Version: 6.00 Build 0)  -->
<svg version="1.1" id="Livello_1" xmlns="http://www.w3.org/2000/svg" xmlns:xlink="http://www.w3.org/1999/xlink" x="0px" y="0px"
	 viewBox="0 0 120 120" style="enable-background:new 0 0 120 120;" xml:space="preserve">
<style type="text/css">
	.st0{fill:#FFFFFF;}
	.st1{fill:#0066B3;}
</style>
<path class="st1" d="M109.5,44.2c-0.5-0.6-1.2-0.9-2-0.9H74.9l-0.2,5.3h29.9l-1.3,12.7H74.1l-0.2,5.3h23.8l-5.1,48h-21l0,0l2.2-48
	l0.2-5.3l0.6-12.7l0.2-5.3l0.1-1.8c0-0.2,0-0.4,0-0.6c3.7-0.2,7.4-0.5,10.5-1c0,0,0.1,0,0.1,0c2.1-0.4,4-1,5.8-2
	c1.8-0.9,3.5-2.2,4.9-3.6c3.8-3.8,5.9-8.8,5.9-14.2c0-5.4-2.1-10.4-5.9-14.2C92.5,2.1,87.5,0,82.1,0c-5.4,0-10.4,2.1-14.2,5.9
	c-1.5,1.5-2.7,3.1-3.6,4.9c-0.9,1.8-1.6,3.8-2,5.8c-0.8,4.4-1,9.9-1.3,14.8c-0.1,2.3-0.2,4.6-0.4,6.7c0,0.2,0,0.4,0,0.6h-3
	c0-0.2,0-0.4,0-0.6c-0.2-2.1-0.3-4.4-0.4-6.7c-0.3-5.2-0.5-10.5-1.3-14.8c-0.4-2-1-4-2-5.8C53,9,51.8,7.4,50.3,5.9
	C46.5,2.1,41.5,0,36.1,0c-5.4,0-10.4,2.1-14.2,5.9C18.1,9.7,16,14.7,16,20.1c0,5.4,2.1,10.4,5.9,14.2c1.5,1.5,3.1,2.7,4.9,3.6
	c1.8,0.9,3.8,1.6,5.7,1.9c0.1,0,0.1,0,0.2,0c3.4,0.6,7.4,0.9,11.5,1.1c0,0.2,0,0.4,0,0.6l0.1,1.8v0H12.5c-0.8,0-1.5,0.3-2,0.9
	c-0.5,0.6-0.7,1.3-0.7,2.1l1.9,18c0.1,1.4,1.3,2.4,2.6,2.4h3l5.4,50.9c0.1,1.4,1.3,2.4,2.6,2.4H95c1.4,0,2.5-1,2.6-2.4l5.4-50.9h2.7
	c1.4,0,2.5-1,2.6-2.4l1.9-18C110.2,45.5,110,44.8,109.5,44.2z M66.3,31.8c0.2-4.8,0.5-10.2,1.2-14.2c0.3-1.5,0.7-2.9,1.4-4.3
	c0.7-1.3,1.6-2.6,2.7-3.6c2.8-2.8,6.5-4.3,10.4-4.3c4,0,7.7,1.5,10.5,4.3c2.8,2.8,4.3,6.5,4.3,10.5c0,3.9-1.5,7.7-4.3,10.5
	c-1.1,1.1-2.3,2-3.6,2.7c-1.3,0.7-2.8,1.2-4.3,1.5c0,0,0,0,0,0c-4,0.7-9.1,1-14.1,1.2l-0.2,0c-1.5,0.1-2.9,0.1-4.3,0.2
	C66.2,34.7,66.2,33.3,66.3,31.8z M69.6,44.1l-3.3,70.5H52.8l-3.3-70.5H69.6z M16.7,61.4l-1.3-12.7h29L45,61.4v0H16.7z M47.5,114.7
	H27.8l-5.1-48h22.5L47.5,114.7L47.5,114.7z M47.7,35.9c-5-0.3-10.1-0.5-14.1-1.2c0,0,0,0-0.1,0c-1.5-0.3-2.9-0.8-4.2-1.4
	c-1.3-0.7-2.5-1.6-3.6-2.7c-2.8-2.8-4.3-6.5-4.3-10.5c0-3.9,1.5-7.7,4.3-10.5c2.8-2.8,6.5-4.3,10.5-4.3c4,0,7.7,1.5,10.5,4.3
	c1.1,1.1,2,2.3,2.7,3.6c0.7,1.3,1.2,2.8,1.4,4.3c0.7,4,1,9.2,1.2,14.2c0.1,1.5,0.1,2.9,0.2,4.3c-1.4-0.1-2.8-0.2-4.3-0.2L47.7,35.9z
	"/>
</svg>
