<?xml version="1.0" encoding="utf-8"?>
<!-- Generator: Adobe Illustrator 23.0.4, SVG Export Plug-In . SVG Version: 6.00 Build 0)  -->
<svg version="1.1" id="Livello_1" xmlns="http://www.w3.org/2000/svg" xmlns:xlink="http://www.w3.org/1999/xlink" x="0px" y="0px"
	 viewBox="0 0 120 120" style="enable-background:new 0 0 120 120;" xml:space="preserve">
<style type="text/css">
	.st0{fill:#FFFFFF;}
	.st1{fill:#0066B3;}
</style>
<path class="st1" d="M119.1,49.3c0-0.1,0-0.1,0-0.2c-2-11.2-7.2-21.5-15.1-30.1C94.1,8.6,81.2,2.1,67,0.4c-0.1,0-0.2,0-0.3,0
	c-1.5-0.2-3-0.3-4.6-0.4c-9.5-0.3-18.6,1.6-26.7,5.2c-0.2,0.1-0.4,0.2-0.6,0.3C19,12.9,6.9,26.9,2.2,44c-0.1,0.2-0.1,0.4-0.2,0.6
	c-1.1,4.3-1.8,8.7-2,13.3c-0.6,16,5.1,31.3,16.1,43c7.7,8.3,17.4,14.1,28.1,17c0,0,0,0,0,0c4.4,1.2,9,1.9,13.7,2.1
	c0.5,0,1.1,0,1.6,0c32.3,0.3,59.3-25.4,60.4-57.9C120.1,57.8,119.8,53.5,119.1,49.3z M100.2,22.5c4.5,4.8,8,10.3,10.5,16.2
	c-8.2-7.8-19.3-13.7-29.8-12.7c-2,0.2-4.3,0.7-6.5,1.6c-1.9-1.8-3.9-3.5-5.8-5.1c8.7-5,16.5-8,21.4-8.8
	C93.7,16.3,97.1,19.2,100.2,22.5z M23.7,101.2c0.1-0.4,0.2-0.8,0.1-1.3c-3.4-16.5,0.5-32.7,11.7-48.2c8-11,18.5-19.9,28.5-26.3
	c1.9,1.5,3.9,3.2,5.8,4.9c-3.9,2.8-7.6,7.4-10.4,14.6c-3.5,9-4.7,20.6-5.9,31.7c-1.5,14.2-3.1,28.9-9.4,35.9
	C36.5,110.3,29.6,106.5,23.7,101.2z M83.5,10.3c-5.5,1.7-12.2,4.8-19.3,9c-1.5-1.1-3-2.2-4.5-3.2c3.5-2.5,6.4-5.8,8.4-10.5
	C73.5,6.4,78.7,8,83.5,10.3z M60.4,5c0.5,0,1,0,1.5,0c0.3,0,0.6,0,0.9,0.1c-1.9,3.6-4.5,6.1-7.7,8c-4-2.4-7.8-4.3-11.2-5.7
	C49.1,5.8,54.7,5,60.4,5z M36.5,10.3c3.3,0.7,7.9,2.6,13.1,5.5C46.7,17,43.5,18,40.1,19c-8.9,2.7-18.5,5.7-27.4,13
	C18.3,22.6,26.6,15,36.5,10.3z M5.1,58.1c0.1-4.2,0.8-8.2,1.8-12.1c10-14.7,23.1-18.6,34.7-22.2c4.7-1.4,9.3-2.8,13.4-4.8
	c1.6,1,3.2,2.1,4.8,3.2C49.6,29,39.3,38,31.4,48.8C20.7,63.5,16.1,79.5,17.9,95.4C9.1,84.9,4.6,71.8,5.1,58.1z M58.1,114.9
	c-2.9-0.1-5.8-0.4-8.7-1c6-8.5,7.5-22.2,9-36.7c1.2-10.8,2.4-22.1,5.6-30.4c2.4-6,5.5-10.4,9.5-13C78.9,39.2,84,45.2,88.2,52
	c10.1,16.2,12.9,32.6,8.3,48.9c0,0.1,0,0.1,0,0.2c-9.9,8.8-22.8,14-37,13.9C59.1,115,58.6,114.9,58.1,114.9z M114.9,61.9
	c-0.4,12.2-4.8,23.3-11.9,32.2c2.1-14.9-1.5-30.2-10.6-44.8c-4-6.5-8.9-12.4-14.1-17.7c1-0.3,2-0.4,3-0.5c12.3-1.2,26,9.1,32.7,19.5
	C114.8,54.3,115.1,58.1,114.9,61.9z"/>
</svg>
